# xmcd CD database file
#
# Track frame offsets:
#	150
#	14286
#	24963
#	35151
#	49404
#	60342
#	74684
#	89784
#	104511
#	119783
#	133669
#	147616
#	161921
#	176066
#	188901
#	203724
#	217893
#	233890
#	247022
#	257520
#	270289
#	285816
#	300007
#	313640
#
# Disc length: 4338 seconds
#
# Revision: 0
# Processed by: cddbd v1.5.2PL0 Copyright (c) Steve Scherf et al.
# Submitted via: CDex 1.70beta2
#
DISCID=6410f018
DTITLE=Griff, Ray - Cdn. AB - 24 Carat Country Gold
DYEAR=2003
DGENRE=Country
TTITLE0=Baby
TTITLE1=Your Lilly White Hands
TTITLE2=After thee Laughter
TTITLE3=Canadian Pacific
TTITLE4=Whar Can I Say
TTITLE5=Who's Going To Play This Old Piano
TTITLE6=The Morning After Baby Let Me Down
TTITLE7=Getting Back To Norma
TTITLE8=The Last of the Winfield Amateurs
TTITLE9=Where Love Begins
TTITLE10=It Couldn't Have Been Any Better
TTITLE11=Darlin'
TTITLE12=If That What It Takes
TTITLE13=Step Aside
TTITLE14=A Light In the Window
TTITLE15=I Love the Way That You Loved Me
TTITLE16=Canada
TTITLE17=It Rains Just the Same In Missouri
TTITLE18=Better Move It On Home
TTITLE19=Between This Time and the Next Time
TTITLE20=Honest To Goodness Amigos
TTITLE21=If I Let Her Come In
TTITLE22=Reelin' Rockin' Rollin'
TTITLE23=You Ring My Bell
EXTD=YEAR: 2003
EXTT0=
EXTT1=
EXTT2=
EXTT3=
EXTT4=
EXTT5=
EXTT6=
EXTT7=
EXTT8=
EXTT9=
EXTT10=
EXTT11=
EXTT12=
EXTT13=
EXTT14=
EXTT15=
EXTT16=
EXTT17=
EXTT18=
EXTT19=
EXTT20=
EXTT21=
EXTT22=
EXTT23=
PLAYORDER=
